<svg width="16" height="16" viewBox="0 0 16 16" fill="none" xmlns="http://www.w3.org/2000/svg">
<g clip-path="url(#clip0_190_88)">
<path d="M13.9063 0.27002H2.09377C1.08654 0.27002 0.27002 1.08654 0.27002 2.09377V13.905C0.27002 14.9122 1.08654 15.7288 2.09377 15.7288H13.9063C14.9135 15.7288 15.73 14.9122 15.73 13.905V2.09377C15.73 1.08654 14.9135 0.27002 13.9063 0.27002Z" fill="url(#paint0_linear_190_88)"/>
<path d="M6.57867 7.53514C6.57867 7.53514 7.89117 7.43764 7.89117 5.89889C7.89117 4.36014 6.81742 3.60889 5.45742 3.60889H0.982422V12.2089H5.45742C5.45742 12.2089 8.18867 12.2951 8.18867 9.67014C8.18867 9.67014 8.30867 7.53514 6.57867 7.53514ZM2.95367 5.13764H5.45367C5.45367 5.13764 6.06242 5.13764 6.06242 6.03264C6.06242 6.92764 5.70492 7.05764 5.29867 7.05764H2.95492L2.95367 5.13764ZM5.34117 10.6801H2.95492V8.38264H5.45492C5.45492 8.38264 6.36117 8.37014 6.36117 9.56389C6.36367 10.5576 5.70117 10.6701 5.34242 10.6801H5.34117ZM11.8324 5.79764C8.52492 5.79764 8.52867 9.10139 8.52867 9.10139C8.52867 9.10139 8.30117 12.3889 11.8324 12.3889C11.8324 12.3889 14.7749 12.5564 14.7749 10.1026H13.2624C13.2624 10.1026 13.3124 11.0276 11.8874 11.0276C11.8874 11.0276 10.3737 11.1289 10.3737 9.52764H14.8299C14.8299 9.52764 15.3137 5.79764 11.8324 5.79764ZM13.1774 8.38264H10.3524C10.3524 8.38264 10.5374 7.05764 11.8662 7.05764C13.1949 7.05764 13.1774 8.38264 13.1774 8.38264ZM9.98242 4.11639H13.5299V5.17514H9.98242V4.11639Z" fill="white"/>
</g>
<defs>
<linearGradient id="paint0_linear_190_88" x1="8.00002" y1="0.27002" x2="8.00002" y2="15.73" gradientUnits="userSpaceOnUse">
<stop stop-color="#005CFF"/>
<stop offset="1" stop-color="#0047AD"/>
</linearGradient>
<clipPath id="clip0_190_88">
<rect width="16" height="16" fill="white"/>
</clipPath>
</defs>
</svg>
